<svg xmlns="http://www.w3.org/2000/svg" viewBox="0 0 512 512">
  <rect width="512" height="512" rx="100" fill="#070f1e"/>
  <line x1="0" y1="128" x2="512" y2="128" stroke="#1e3050" stroke-width="1"/>
  <line x1="0" y1="256" x2="512" y2="256" stroke="#1e3050" stroke-width="1"/>
  <line x1="0" y1="384" x2="512" y2="384" stroke="#1e3050" stroke-width="1"/>
  <line x1="128" y1="0" x2="128" y2="512" stroke="#1e3050" stroke-width="1"/>
  <line x1="256" y1="0" x2="256" y2="512" stroke="#1e3050" stroke-width="1"/>
  <line x1="384" y1="0" x2="384" y2="512" stroke="#1e3050" stroke-width="1"/>
  <rect x="60" y="100" width="392" height="280" rx="24" fill="#0d1a2e" stroke="#1e3050" stroke-width="3"/>
  <defs>
    <linearGradient id="topgrad" x1="0" y1="0" x2="1" y2="0">
      <stop offset="0%" stop-color="#070f1e"/>
      <stop offset="50%" stop-color="#00d4ff"/>
      <stop offset="100%" stop-color="#070f1e"/>
    </linearGradient>
  </defs>
  <rect x="60" y="100" width="392" height="4" rx="2" fill="url(#topgrad)"/>
  <circle cx="185" cy="235" r="78" fill="#132035" stroke="#00d4ff" stroke-width="1.5" opacity="0.8"/>
  <g transform="translate(185,235)">
    <ellipse rx="30" ry="11" transform="rotate(0)" fill="#00d4ff" opacity="0.75"/>
    <ellipse rx="30" ry="11" transform="rotate(45)" fill="#00d4ff" opacity="0.75"/>
    <ellipse rx="30" ry="11" transform="rotate(90)" fill="#00d4ff" opacity="0.75"/>
    <ellipse rx="30" ry="11" transform="rotate(135)" fill="#00d4ff" opacity="0.75"/>
    <circle r="14" fill="#0d1a2e" stroke="#00d4ff" stroke-width="2.5"/>
    <circle r="6" fill="#00d4ff"/>
  </g>
  <circle cx="327" cy="235" r="78" fill="#132035" stroke="#00ff88" stroke-width="1.5" opacity="0.8"/>
  <g transform="translate(327,235)">
    <ellipse rx="30" ry="11" transform="rotate(22)" fill="#00ff88" opacity="0.75"/>
    <ellipse rx="30" ry="11" transform="rotate(67)" fill="#00ff88" opacity="0.75"/>
    <ellipse rx="30" ry="11" transform="rotate(112)" fill="#00ff88" opacity="0.75"/>
    <ellipse rx="30" ry="11" transform="rotate(157)" fill="#00ff88" opacity="0.75"/>
    <circle r="14" fill="#0d1a2e" stroke="#00ff88" stroke-width="2.5"/>
    <circle r="6" fill="#00ff88"/>
  </g>
  <rect x="243" y="228" width="26" height="14" rx="3" fill="#1e3050"/>
  <polygon points="256,220 270,235 256,250 242,235" fill="#ff6b35"/>
  <rect x="60" y="350" width="392" height="30" fill="#050d18"/>
  <text x="256" y="373" font-family="monospace" font-size="20" font-weight="bold" fill="#00d4ff" text-anchor="middle" letter-spacing="6">PC MONITOR</text>
  <circle cx="185" cy="425" r="9" fill="#00ff88"/>
  <circle cx="256" cy="425" r="9" fill="#00d4ff"/>
  <circle cx="327" cy="425" r="9" fill="#ff6b35"/>
  <text x="185" y="458" font-family="monospace" font-size="13" fill="#3a5a7a" text-anchor="middle">EVAP</text>
  <text x="256" y="458" font-family="monospace" font-size="13" fill="#3a5a7a" text-anchor="middle">FLOW</text>
  <text x="327" y="458" font-family="monospace" font-size="13" fill="#3a5a7a" text-anchor="middle">COND</text>
</svg>