<?xml version="1.0" standalone="no"?>
<!DOCTYPE svg PUBLIC "-//W3C//DTD SVG 20010904//EN"
 "http://www.w3.org/TR/2001/REC-SVG-20010904/DTD/svg10.dtd">
<svg version="1.0" xmlns="http://www.w3.org/2000/svg"
 width="1024.000000pt" height="1024.000000pt" viewBox="0 0 1024.000000 1024.000000"
 preserveAspectRatio="xMidYMid meet">

<g transform="translate(0.000000,1024.000000) scale(0.100000,-0.100000)"
fill="#000000" stroke="none">
<path d="M4860 9980 c-772 -39 -1571 -281 -2225 -672 -378 -226 -639 -431
-960 -753 -322 -322 -549 -617 -775 -1005 -432 -745 -659 -1643 -637 -2520 16
-614 126 -1153 352 -1726 113 -285 328 -696 356 -678 5 3 8 -5 6 -18 -1 -12 3
-23 10 -23 15 0 30 -15 14 -15 -7 0 -9 -5 -6 -10 4 -6 11 -7 17 -4 8 5 9 1 5
-10 -4 -9 -3 -14 2 -11 5 3 12 1 16 -5 3 -5 1 -10 -4 -10 -11 0 64 -119 83
-132 5 -3 15 -4 22 -1 7 2 26 -15 44 -39 17 -24 68 -92 113 -151 45 -60 81
-113 79 -119 -1 -5 2 -7 7 -4 5 3 17 -6 26 -21 12 -18 14 -28 7 -31 -17 -5
-15 -19 3 -19 8 0 15 5 15 11 1 6 9 0 20 -13 11 -12 17 -27 14 -32 -3 -5 -2
-8 3 -7 4 1 105 -94 223 -213 285 -286 507 -469 800 -661 985 -647 2155 -901
3370 -732 541 75 1171 294 1666 580 195 112 526 340 681 470 146 122 482 447
506 489 4 9 13 13 18 10 5 -4 7 -11 4 -16 -4 -5 -2 -9 2 -9 15 0 47 35 247
280 219 268 463 681 614 1040 214 508 327 963 377 1525 21 238 14 745 -14 975
-99 820 -349 1499 -802 2170 -282 418 -668 822 -1098 1149 -172 131 -464 314
-681 428 -446 233 -996 412 -1505 487 -274 41 -718 61 -1015 46z m-1384 -2207
l171 -6 -21 -38 -21 -39 -591 0 c-380 0 -611 -4 -650 -11 -186 -34 -365 -206
-403 -387 -7 -36 -11 -264 -11 -697 0 -631 0 -645 21 -701 24 -63 81 -127 137
-152 26 -11 78 -18 172 -22 l135 -5 0 -40 0 -40 -145 1 c-130 0 -150 3 -193
23 -69 34 -142 104 -171 164 -45 93 -47 140 -44 832 4 722 -1 668 73 815 42
83 163 199 255 244 127 62 152 64 660 65 250 1 532 -2 626 -6z m982 -22 c96
-28 188 -72 259 -125 59 -44 395 -414 401 -442 4 -15 -34 -64 -49 -64 -4 0
-63 62 -131 137 -267 299 -310 335 -455 386 -100 36 -216 49 -400 45 -178 -3
-205 -12 -246 -78 -21 -33 -22 -48 -25 -304 -3 -289 -3 -286 -59 -315 -21 -10
-22 -8 -28 42 -4 28 -5 167 -3 307 3 281 5 287 72 358 70 75 103 82 371 78
187 -3 231 -7 293 -25z m1986 22 l137 -6 -36 -37 -37 -38 -251 -5 c-279 -5
-354 -17 -465 -77 -85 -45 -133 -90 -360 -339 -449 -493 -621 -677 -652 -699
-28 -21 -35 -22 -61 -12 -16 7 -29 15 -29 19 0 9 144 177 254 296 51 55 114
125 141 155 26 30 78 87 114 125 36 39 139 151 229 251 201 223 283 287 437
338 105 34 289 43 579 29z m1613 -18 c77 -22 177 -76 235 -125 61 -53 134
-163 167 -253 l26 -72 3 -650 c3 -699 1 -744 -46 -830 -25 -45 -31 -50 -61
-48 -49 2 -57 16 -31 53 49 69 50 79 50 764 0 707 -1 713 -63 830 -58 110
-155 190 -287 238 l-65 23 -615 0 c-597 -1 -617 -1 -650 -21 -20 -11 -43 -38
-57 -64 -21 -43 -22 -57 -25 -340 l-2 -295 46 -3 46 -3 24 -96 23 -95 95 -24
c52 -13 99 -24 105 -23 5 0 34 29 63 65 29 35 61 64 71 64 17 0 161 -81 209
-119 l24 -17 -26 -93 -25 -92 72 -75 73 -74 89 30 90 31 20 -25 c11 -14 44
-70 73 -125 l52 -99 -70 -63 -70 -64 29 -105 28 -104 88 -22 c48 -12 91 -26
95 -31 5 -4 10 -26 12 -48 l3 -40 170 0 c162 0 173 -1 225 -26 109 -51 178
-136 205 -252 13 -57 15 -146 14 -580 -1 -282 -5 -549 -10 -595 -19 -188 -138
-366 -298 -447 -121 -61 -100 -59 -779 -63 -704 -4 -696 -4 -770 67 -73 71
-77 84 -80 289 l-4 182 36 0 c19 0 38 -4 41 -10 3 -5 8 -78 11 -162 6 -170 22
-222 77 -262 28 -21 42 -21 595 -24 649 -3 711 1 820 53 128 61 231 192 261
333 7 36 11 236 11 611 0 632 0 628 -73 708 -66 73 -101 83 -292 90 l-164 6
-7 -52 -7 -51 -51 -14 c-28 -8 -69 -18 -91 -23 l-40 -9 -28 -104 -29 -104 67
-65 67 -65 -12 -36 c-11 -29 -76 -148 -108 -197 -6 -9 -31 -5 -101 18 l-93 30
-75 -76 -76 -76 27 -92 c14 -50 22 -94 18 -98 -16 -17 -207 -129 -218 -129 -7
0 -41 31 -76 69 l-63 70 -90 -25 c-49 -14 -97 -29 -105 -33 -13 -7 -22 -33
-51 -152 -9 -36 -10 -36 -72 -44 -74 -8 -87 -8 -151 2 l-50 8 -18 84 c-10 47
-22 89 -28 95 -6 6 -48 21 -93 34 -45 12 -89 25 -97 28 -11 3 -37 -19 -79 -66
-51 -57 -67 -69 -84 -64 -17 5 -203 109 -215 119 -2 2 9 43 23 92 15 48 28 93
29 98 0 6 -34 43 -77 84 l-77 75 -90 -29 c-88 -28 -90 -28 -104 -9 -19 26 -96
169 -96 179 0 15 43 -31 82 -87 21 -32 44 -58 51 -58 25 0 146 54 140 63 -3 5
-9 3 -14 -4 -5 -8 -9 -12 -10 -9 0 3 -2 16 -5 29 -2 13 0 29 6 36 8 9 7 14 -1
17 -8 3 -7 9 4 20 9 8 14 18 11 20 -2 3 3 11 11 18 14 12 14 15 -4 34 -21 23
-55 125 -66 198 -11 72 10 67 35 -8 90 -280 339 -526 620 -612 215 -66 459
-52 655 37 78 35 205 121 269 180 152 142 257 356 286 581 36 278 -68 580
-269 781 -367 366 -966 366 -1331 0 -102 -103 -200 -263 -235 -386 l-18 -59
-19 25 c-10 13 -37 45 -59 71 -35 42 -39 50 -28 70 11 21 6 28 -61 90 l-72 67
39 73 c72 131 77 138 100 138 12 0 56 -11 96 -24 l75 -23 76 73 76 72 -27 96
c-26 94 -26 96 -7 110 33 25 160 96 193 109 34 12 39 8 132 -107 16 -19 20
-20 65 -7 27 8 73 19 103 26 62 13 62 13 86 127 l16 77 47 3 46 3 -3 281 c-2
191 1 295 9 325 26 98 106 180 193 199 18 3 308 5 644 4 537 -2 620 -4 670
-19z m-4767 -330 c41 -9 82 -19 90 -22 16 -5 17 -4 -99 -101 l-51 -44 -6 31
c-4 17 -10 34 -15 37 -14 8 -219 -82 -320 -142 -142 -84 -213 -138 -332 -253
-117 -113 -204 -219 -282 -343 -27 -43 -52 -78 -57 -78 -5 0 -6 -4 -3 -10 3
-5 2 -10 -4 -10 -5 0 -13 -9 -16 -20 -3 -11 -10 -20 -15 -20 -5 0 6 34 25 75
150 328 521 662 903 810 91 35 94 38 76 94 -6 20 -4 22 12 18 10 -3 53 -13 94
-22z m4125 -179 c132 -65 266 -156 371 -251 81 -73 238 -254 228 -264 -3 -3
-9 1 -14 9 -5 8 -13 15 -17 15 -4 1 -71 64 -148 141 -153 153 -292 260 -444
338 -82 42 -116 66 -94 66 5 0 58 -24 118 -54z m-3785 -40 c0 -21 -6 -25 -42
-31 -265 -40 -473 -117 -673 -250 -161 -107 -312 -258 -414 -413 -112 -172
-208 -421 -232 -600 -14 -109 -15 -112 -34 -112 -27 0 -29 31 -11 140 61 360
263 713 533 930 175 141 310 216 505 281 121 41 275 77 336 78 27 1 32 -2 32
-23z m438 -2 c214 -48 409 -128 558 -230 101 -69 173 -127 173 -141 2 -30 -25
-19 -111 42 -172 124 -317 196 -503 250 -72 21 -244 55 -277 55 -5 0 -8 11 -8
25 0 33 19 33 168 -1z m2382 1 c0 -27 -6 -29 -98 -40 -208 -23 -479 -139 -675
-286 -94 -70 -110 -78 -123 -57 -10 16 58 75 177 154 163 109 351 186 558 229
152 31 161 31 161 0z m425 5 c414 -80 781 -322 1014 -668 102 -152 204 -405
236 -586 20 -120 20 -158 -2 -154 -19 3 -24 19 -48 153 -22 123 -74 272 -136
396 -163 326 -414 561 -760 711 -90 39 -312 100 -411 113 -42 5 -48 9 -48 31
0 30 14 31 155 4z m-1284 -534 c49 -55 89 -103 89 -107 0 -14 -61 -29 -79 -20
-21 12 -200 196 -299 310 l-74 83 29 30 28 30 109 -113 c60 -63 149 -159 197
-213z m-1689 270 c4 -6 15 -46 25 -90 19 -88 10 -80 140 -119 l82 -24 64 71
c64 71 64 71 97 59 18 -7 71 -36 117 -65 96 -60 93 -51 57 -181 l-19 -67 75
-75 75 -74 60 20 c33 11 76 22 96 25 35 6 37 5 72 -52 19 -33 46 -81 58 -107
l24 -49 -40 -35 c-22 -19 -52 -46 -67 -59 -16 -13 -28 -31 -28 -40 0 -19 -25
-46 -34 -37 -4 4 -16 8 -27 10 -15 2 -20 -1 -16 -11 3 -8 1 -16 -6 -19 -8 -2
-8 -16 0 -52 9 -40 8 -53 -3 -69 -10 -15 -14 -16 -18 -5 -46 131 -71 191 -100
242 -104 184 -276 328 -491 411 -120 46 -197 59 -340 58 -259 -1 -482 -97
-661 -284 -95 -100 -146 -174 -191 -282 -117 -277 -103 -579 39 -838 222 -404
716 -594 1136 -438 282 105 488 321 597 623 12 34 20 46 28 38 18 -18 -30
-158 -90 -261 -40 -68 -82 -121 -148 -187 -148 -147 -280 -223 -473 -270 -290
-71 -579 -8 -830 182 -113 85 -117 89 -179 175 -26 36 -55 72 -65 81 -10 9
-18 23 -19 30 0 10 -2 11 -6 2 -2 -7 -10 -13 -15 -13 -6 0 -8 3 -5 7 4 3 -1
12 -10 18 -14 11 -19 10 -29 -3 -6 -8 -16 -12 -23 -8 -9 6 -7 12 6 22 22 16
10 18 -19 3 -14 -8 -23 -8 -31 0 -8 8 -6 11 7 11 9 0 14 5 11 10 -6 9 -116
-67 -130 -90 -6 -9 20 -61 77 -157 l19 -31 86 29 c48 16 88 29 90 29 3 0 46
-42 98 -93 l94 -94 -30 -89 -30 -89 28 -22 c15 -12 56 -37 91 -55 l64 -32 26
29 c14 17 42 50 63 73 l38 44 53 -20 c29 -10 85 -27 124 -36 l72 -18 22 -94
21 -94 104 0 c118 0 105 -11 130 110 16 77 25 90 62 90 13 0 65 14 115 30 l93
30 30 -36 c17 -20 44 -53 62 -73 l32 -36 74 39 c116 62 110 50 81 142 -13 43
-24 87 -24 96 0 9 41 57 92 106 l91 89 76 -24 c42 -12 83 -23 92 -23 9 0 33
27 55 63 22 34 47 63 56 65 23 4 17 -13 -41 -106 -24 -40 -49 -71 -56 -69 -6
3 -46 15 -88 26 l-77 22 -80 -73 c-44 -40 -80 -77 -80 -83 0 -5 11 -45 25 -88
14 -43 25 -83 25 -90 0 -7 -40 -35 -88 -64 -148 -87 -127 -87 -204 -4 l-67 73
-48 -16 c-26 -8 -72 -21 -100 -27 -58 -12 -57 -9 -93 -160 l-12 -46 -66 -5
c-37 -3 -95 -3 -128 0 l-62 4 -21 77 c-35 121 -30 115 -117 138 -44 11 -89 24
-101 28 -19 6 -33 -4 -89 -64 -46 -49 -72 -70 -83 -66 -36 14 -204 120 -208
132 -3 7 8 50 23 96 l29 82 -79 78 c-44 42 -85 77 -91 77 -6 0 -45 -11 -85
-25 -40 -14 -77 -25 -82 -25 -11 0 -95 130 -120 188 l-21 46 72 66 72 65 -19
55 c-11 30 -24 78 -31 106 l-12 50 -93 23 -93 22 -6 70 c-3 38 -3 100 0 138
l6 69 77 21 c43 11 84 21 92 21 11 0 21 23 33 73 9 39 23 87 30 104 l14 32
-76 70 -76 70 48 83 c26 46 58 99 71 120 l23 36 92 -28 92 -29 77 72 76 72
-28 89 c-16 49 -27 94 -24 101 4 11 192 127 228 140 12 5 32 -13 73 -64 32
-39 62 -71 69 -71 6 0 40 9 74 20 35 11 77 20 93 20 30 0 28 -5 60 123 5 23
12 50 15 59 4 12 19 18 52 21 73 6 216 -4 224 -17z m1436 -416 c-46 -63 -75
-97 -84 -93 -8 3 -14 11 -14 17 0 15 49 93 98 158 33 44 37 46 53 32 16 -14
12 -22 -53 -114z m-321 83 c31 -40 72 -104 91 -139 9 -17 9 -24 -2 -33 -11
-10 -27 7 -81 84 -60 87 -74 125 -46 125 5 0 22 -17 38 -37z m-1032 -83 c164
-42 302 -126 423 -255 112 -120 171 -229 207 -387 15 -63 16 -80 5 -92 -21
-26 -27 -19 -40 47 -15 79 -61 190 -109 264 -116 179 -272 297 -476 359 -78
24 -108 27 -225 28 -143 1 -201 -10 -322 -58 -100 -40 -169 -87 -259 -176
-156 -154 -237 -334 -246 -551 -6 -129 4 -204 43 -324 38 -118 79 -195 146
-274 32 -39 55 -71 50 -71 -15 0 -60 54 -115 137 -30 46 -58 79 -62 75 -5 -4
-6 1 -2 10 3 10 0 19 -9 22 -23 9 -64 111 -85 211 -92 444 161 882 591 1024
36 12 92 25 125 31 91 14 268 4 360 -20z m2763 14 c173 -35 311 -108 440 -229
131 -123 207 -252 253 -428 33 -126 31 -300 -5 -432 -48 -177 -110 -288 -232
-410 -41 -40 -101 -91 -133 -113 -65 -43 -183 -96 -250 -111 -38 -8 -42 -7
-37 7 5 15 4 15 -7 0 -8 -10 -17 -15 -20 -11 -4 3 -7 1 -7 -5 0 -7 -5 -12 -11
-12 -5 0 -7 5 -4 10 3 6 0 10 -7 11 -14 0 25 18 51 23 9 1 34 10 55 20 22 9
51 19 65 23 47 11 220 134 285 203 102 109 180 260 213 414 19 89 13 294 -11
380 -85 306 -326 534 -627 596 -363 75 -715 -86 -898 -411 -35 -63 -75 -174
-86 -240 -10 -60 -14 -64 -37 -34 -20 25 -20 28 -3 93 65 261 242 478 477 586
175 81 363 106 536 70z m-4639 -117 c6 -8 35 -22 66 -32 30 -11 55 -23 55 -27
0 -12 -127 -144 -133 -138 -3 3 -8 51 -12 108 -7 101 -2 120 24 89z m3155
-180 c39 -51 148 -195 244 -322 96 -126 177 -236 179 -243 5 -12 -493 -682
-507 -682 -4 0 -47 53 -95 118 -49 64 -165 215 -258 335 -154 198 -168 219
-156 236 28 39 379 499 438 574 34 42 67 77 74 76 6 0 43 -41 81 -92z m-1383
-9 c11 -40 22 -77 24 -83 1 -5 25 -20 53 -31 l51 -22 63 39 c35 21 70 38 78
37 8 0 41 -29 73 -63 l59 -63 -38 -68 -38 -67 20 -55 19 -55 75 -21 75 -21 3
-96 3 -96 -53 -11 c-86 -17 -106 -28 -123 -68 -21 -51 -19 -65 17 -138 l32
-65 -58 -66 -58 -66 -57 32 c-31 18 -63 37 -72 42 -12 8 -32 5 -70 -9 l-54
-19 -26 -80 -25 -80 -86 -3 -85 -3 -12 48 c-28 106 -32 113 -93 137 l-57 23
-66 -44 -67 -45 -61 59 c-34 32 -63 63 -65 69 -2 6 13 39 33 72 39 68 41 80
16 136 -16 38 -21 41 -97 60 l-79 21 0 95 0 95 76 19 77 20 22 52 21 52 -41
73 -41 72 63 64 c34 35 67 63 73 63 5 0 39 -18 73 -39 l64 -39 51 21 c29 11
53 22 55 23 2 1 12 34 21 72 10 38 22 75 25 81 5 7 42 11 96 11 l89 0 22 -72z
m2617 -35 c27 -42 28 -43 84 -43 l58 0 51 65 c28 36 57 65 65 65 8 0 46 -14
85 -32 l70 -31 -6 -76 c-4 -42 -8 -79 -9 -82 0 -3 16 -25 37 -48 l39 -43 80
12 c44 6 82 10 83 8 2 -2 18 -42 35 -88 l31 -85 -38 -30 c-86 -69 -90 -75 -86
-133 5 -50 7 -55 59 -94 62 -47 66 -62 32 -141 -33 -80 -34 -81 -119 -69 l-74
10 -43 -42 -43 -42 11 -73 c7 -39 9 -78 7 -85 -4 -11 -36 -26 -152 -72 -6 -3
-34 26 -61 63 l-51 68 -61 -3 c-61 -4 -61 -4 -92 -51 -53 -84 -56 -85 -131
-55 -94 38 -95 39 -81 131 l12 77 -37 39 -38 38 -88 -3 -89 -3 -28 70 c-16 39
-29 76 -29 83 -1 6 26 33 59 59 l60 46 0 57 0 56 -60 45 c-32 24 -59 52 -60
61 0 19 47 149 58 160 4 4 43 2 86 -3 l80 -10 39 39 40 40 -10 78 c-8 58 -7
82 1 91 6 7 43 25 81 42 l70 29 23 -27 c12 -14 35 -45 50 -68z m-1703 -163 c3
-5 1 -10 -4 -10 -6 0 -11 5 -11 10 0 6 2 10 4 10 3 0 8 -4 11 -10z m-179 -549
c-3 -24 -11 -50 -16 -56 -11 -13 -18 -39 -26 -89 -5 -34 -21 -56 -40 -56 -8 0
-14 -5 -14 -12 0 -6 -3 -9 -6 -6 -3 4 10 48 29 100 19 51 38 115 42 141 6 42
8 47 22 36 11 -10 14 -24 9 -58z m1162 3 c36 -191 175 -407 329 -510 32 -21
67 -47 78 -58 18 -19 18 -19 0 -13 -10 4 -21 3 -25 -3 -8 -12 -75 32 -140 91
-25 23 -37 36 -27 29 27 -20 20 4 -10 31 -23 21 -25 21 -19 5 7 -20 7 -20 -15
0 -105 95 -242 399 -211 469 6 14 15 25 20 25 4 0 13 -30 20 -66z m2362 5 c0
-45 -36 -217 -66 -312 -32 -103 -127 -299 -192 -395 -227 -340 -587 -583 -977
-661 -147 -29 -170 -30 -170 -7 0 17 14 22 105 37 419 71 800 331 1038 710 98
155 190 416 217 612 5 38 10 47 26 47 15 0 19 -7 19 -31z m-5886 -1 c2 -13 11
-66 21 -118 80 -459 401 -881 830 -1090 144 -71 305 -118 488 -145 23 -4 37
-11 37 -20 0 -19 -24 -19 -141 1 -352 60 -707 272 -941 563 -116 145 -205 309
-268 500 -35 103 -70 261 -70 312 0 28 39 25 44 -3z m-290 -27 c-20 -77 -23
-151 -24 -656 0 -464 2 -560 15 -610 42 -161 166 -292 332 -351 l68 -24 619 0
c607 0 621 0 662 21 26 12 53 36 66 57 21 34 23 51 26 205 l4 167 40 0 40 0
-4 -172 c-3 -190 -12 -221 -75 -279 -72 -67 -32 -64 -735 -67 -560 -2 -646 -1
-700 14 -198 50 -338 181 -404 374 -18 51 -19 95 -19 670 0 529 2 619 15 645
8 17 20 30 27 30 6 0 14 3 18 7 4 4 14 4 22 1 10 -4 12 -13 7 -32z m2527 -255
c5 3 9 1 9 -5 0 -5 -5 -13 -10 -16 -6 -4 -8 -11 -5 -16 4 -5 -6 -21 -22 -36
-15 -16 -27 -32 -25 -36 1 -5 -2 -6 -7 -3 -5 3 -22 -9 -38 -27 -33 -37 -107
-97 -119 -97 -5 0 0 7 11 16 51 37 135 129 130 142 -2 7 0 10 5 7 6 -3 10 -1
10 6 0 18 44 81 48 69 2 -6 8 -8 13 -4z m3783 -191 c4 -38 9 -78 12 -87 5 -16
3 -16 -33 -2 -25 11 -39 12 -41 5 -2 -6 -14 -26 -28 -46 -13 -20 -40 -66 -60
-103 -53 -100 -87 -151 -103 -157 -10 -4 -9 1 4 15 10 11 15 20 11 20 -4 0 11
26 34 59 40 58 99 189 100 224 0 12 -10 20 -31 24 l-31 6 73 73 c83 84 82 84
93 -31z m-5053 -12 c13 -16 12 -17 -3 -4 -17 13 -22 21 -14 21 2 0 10 -8 17
-17z m1029 -49 c-8 -8 -23 -20 -34 -25 -13 -7 -9 -1 9 15 34 29 43 33 25 10z
m1079 -155 c38 -52 42 -63 32 -82 -11 -21 -11 -20 -6 5 4 21 2 26 -9 22 -15
-6 -40 29 -29 40 3 3 1 6 -6 6 -7 0 -9 5 -6 10 3 6 1 10 -6 10 -7 0 -9 3 -6 7
4 3 0 15 -10 25 -9 10 -12 18 -7 18 5 0 29 -28 53 -61z m986 31 c3 -6 -1 -7
-9 -4 -18 7 -21 14 -7 14 6 0 13 -4 16 -10z m80 -11 c11 -17 -1 -21 -15 -4 -8
9 -8 15 -2 15 6 0 14 -5 17 -11z m188 -25 c80 -3 81 -10 2 -13 -80 -3 -143 8
-123 20 7 5 24 6 38 2 14 -4 51 -8 83 -9z m-1025 -69 c12 -3 22 -11 22 -16 0
-11 -281 -306 -561 -590 -339 -343 -436 -382 -924 -371 -153 3 -137 22 20 22
169 1 339 16 374 35 17 8 31 17 31 18 0 2 -17 4 -37 5 -62 5 -63 4 97 47 24 7
23 6 -5 -14 l-29 -20 43 4 c57 5 118 38 164 87 20 22 37 42 37 44 0 1 -23 -13
-51 -32 -69 -46 -82 -43 -22 4 26 22 125 117 218 213 458 469 570 579 585 575
8 -3 25 -7 38 -11z m-643 -82 c-2 -10 -4 -20 -4 -22 -1 -2 -8 3 -17 10 -14 12
-14 14 3 20 10 4 19 8 20 8 1 1 0 -7 -2 -16z m-117 -150 c-13 -14 -68 -59
-122 -100 -202 -152 -505 -273 -710 -284 -95 -6 -59 17 61 40 259 49 516 166
705 322 26 22 51 39 57 39 6 0 11 5 11 11 0 5 5 7 11 4 7 -5 2 -16 -13 -32z
m825 -17 c88 -71 206 -146 306 -196 132 -66 232 -95 499 -146 12 -2 22 -12 22
-20 0 -14 -9 -16 -62 -10 -209 23 -468 120 -655 245 -139 94 -229 181 -185
181 4 0 38 -25 75 -54z m-130 -391 c122 -116 192 -170 276 -211 40 -19 43 -21
19 -21 -15 0 -25 3 -22 8 3 5 0 9 -6 9 -6 0 -29 9 -50 19 -22 11 -40 15 -40
10 0 -5 11 -15 25 -21 14 -6 25 -15 25 -20 0 -4 3 -7 8 -6 4 1 27 -4 51 -11
27 -8 47 -9 53 -3 6 6 25 6 51 0 23 -6 48 -11 55 -11 7 0 11 -5 9 -11 -9 -28
25 -34 244 -41 208 -6 268 -15 226 -31 -9 -3 -128 -4 -264 -1 -272 5 -307 11
-440 72 -39 18 -93 48 -120 66 -52 35 -252 226 -285 273 l-21 28 22 -7 c13 -4
27 -1 37 9 8 9 18 16 21 16 3 0 59 -52 126 -115z m1757 -10 c0 -8 0 -17 0 -20
-1 -3 6 -13 15 -21 8 -9 13 -20 10 -25 -4 -5 -1 -9 4 -9 6 0 11 -5 11 -11 0
-7 8 -18 18 -26 16 -13 16 -14 -3 -9 -11 2 -49 7 -85 11 -101 10 -104 16 -40
75 57 53 70 59 70 35z m-1520 -666 c272 -1 459 -5 425 -9 -79 -10 -1704 -12
-1786 -2 -68 7 483 19 741 16 74 -1 353 -3 620 -5z m-1595 -163 l27 -18 -22
-23 c-19 -20 -24 -21 -57 -10 -43 15 -64 10 -93 -20 -29 -31 -31 -106 -4 -136
30 -34 62 -42 96 -24 56 27 94 -18 43 -51 -67 -44 -178 -15 -216 56 -25 46
-24 120 1 169 37 74 154 103 225 57z m514 -61 l24 -80 27 80 27 80 41 3 42 3
0 -161 0 -161 -32 3 -33 3 -5 95 -5 95 -18 -52 c-33 -93 -58 -93 -96 2 l-20
50 0 -97 -1 -98 -30 0 -30 0 0 161 0 160 42 -3 42 -3 25 -80z m437 66 c76 -46
88 -198 21 -269 -52 -56 -156 -49 -204 15 -25 32 -28 45 -28 107 0 59 4 77 24
105 42 59 127 78 187 42z m1325 -4 c51 -34 71 -80 66 -149 -6 -72 -31 -115
-80 -141 -107 -55 -222 45 -203 178 17 113 129 171 217 112z m-2630 -4 c38
-23 54 -71 39 -117 -15 -45 -47 -65 -120 -73 l-60 -6 0 -48 0 -49 -35 0 -35 0
0 155 0 155 91 0 c68 0 98 -4 120 -17z m1569 -79 c24 -52 47 -97 51 -100 4 -2
5 41 2 96 l-6 100 42 0 41 0 0 -156 0 -155 -42 3 c-42 3 -43 4 -86 86 -52 97
-62 95 -62 -15 l0 -73 -35 0 -35 0 0 155 0 155 43 0 42 0 45 -96z m450 66 c0
-28 -2 -30 -40 -30 l-40 0 0 -95 0 -95 40 0 c38 0 40 -2 40 -30 l0 -30 -115 0
-115 0 0 30 c0 28 3 30 35 30 l35 0 0 95 0 95 -35 0 c-32 0 -35 2 -35 30 l0
30 115 0 115 0 0 -30z m350 0 c0 -29 -1 -30 -50 -30 l-50 0 0 -125 0 -125 -40
0 -40 0 0 124 0 125 -47 3 c-44 3 -48 5 -51 31 l-3 27 140 0 141 0 0 -30z
m600 15 c56 -29 66 -89 25 -149 l-26 -38 31 -54 31 -54 -40 0 c-38 0 -42 3
-73 55 -24 41 -39 55 -55 55 -21 0 -23 -5 -23 -55 l0 -55 -34 0 c-31 0 -34 3
-40 38 -3 20 -6 90 -6 155 l0 117 90 0 c62 0 100 -5 120 -15z m-3520 -137 c0
-10 -43 -12 -187 -10 -122 2 -183 6 -173 12 24 15 360 13 360 -2z m4285 2 c12
-5 -51 -9 -162 -9 -116 -1 -183 3 -183 9 0 12 316 12 345 0z m-1430 -296 c50
-3 149 -5 220 -5 72 1 137 -3 145 -9 11 -7 7 -10 -20 -10 -134 -2 -422 -14
-560 -25 -324 -24 -889 -25 -1180 -2 -96 8 -247 15 -335 17 -185 3 -354 15
-270 20 28 1 61 4 75 7 14 2 178 6 365 9 187 3 345 7 350 9 15 5 1107 -5 1210
-11z m-2088 -20 c-3 -3 -12 -4 -19 -1 -8 3 -5 6 6 6 11 1 17 -2 13 -5z m-158
-220 c12 -15 21 -36 21 -46 0 -15 4 -18 18 -13 41 18 70 17 91 -4 17 -17 19
-25 10 -51 -6 -17 -20 -37 -32 -45 -21 -14 -21 -14 7 -40 58 -54 11 -126 -64
-98 -29 11 -30 10 -30 -18 0 -16 4 -29 9 -29 5 0 19 -11 32 -25 16 -16 35 -25
56 -25 17 0 35 -5 38 -11 4 -6 13 -8 21 -5 7 3 16 0 20 -6 4 -7 9 -6 15 3 14
22 11 -4 -6 -50 -8 -23 -11 -49 -8 -59 9 -22 29 -43 36 -36 11 11 47 -51 47
-80 0 -76 -66 -128 -218 -171 l-92 -27 -78 17 c-97 21 -177 57 -219 98 -27 25
-33 38 -33 74 0 37 6 50 41 88 37 40 41 48 35 80 -4 22 -3 35 4 35 5 0 18 8
28 18 25 23 50 39 90 58 18 8 30 19 27 25 -4 5 -1 8 7 7 8 -2 14 8 16 25 3 26
2 27 -17 18 -52 -28 -109 4 -97 55 4 14 18 36 30 47 l24 21 -29 27 c-34 32
-37 59 -9 84 15 13 28 16 57 10 21 -4 40 -8 42 -8 3 -1 8 11 12 26 17 62 62
76 98 31z m1438 -67 c29 -51 58 -107 64 -125 16 -48 3 -97 -36 -135 l-35 -34
67 -18 c38 -10 73 -26 80 -34 9 -12 12 -12 13 -3 0 10 4 10 15 -2 11 -11 14
-28 10 -68 -5 -47 -3 -56 20 -81 14 -16 29 -26 34 -23 10 7 21 -27 21 -66 0
-59 -107 -132 -232 -159 -63 -13 -58 -7 -62 -94 -1 -30 -22 -43 -51 -31 -12 4
-13 11 -4 32 5 15 7 39 4 53 -5 23 -16 29 -88 49 -170 47 -238 123 -192 212 8
16 29 38 46 51 27 19 31 26 26 58 -3 20 -3 30 0 24 6 -16 53 13 53 33 0 8 5
14 11 14 5 0 8 4 5 9 -3 5 8 14 25 21 21 9 29 18 26 30 -3 13 0 16 15 12 17
-4 17 -1 -6 33 -44 64 -37 90 70 282 16 29 34 53 39 53 6 0 34 -42 62 -93z
m1371 68 c8 -39 33 -57 73 -50 31 5 39 3 48 -14 16 -29 14 -50 -8 -77 -21 -27
-18 -54 9 -79 18 -16 18 -19 3 -51 -17 -35 -24 -38 -58 -25 -25 10 -65 -14
-65 -40 0 -10 -12 -26 -26 -36 -29 -19 -51 -11 -69 24 -23 44 -37 54 -70 47
-27 -5 -36 -2 -49 17 -20 29 -20 53 -1 69 21 18 19 60 -6 86 -19 21 -20 24 -4
53 14 29 19 31 54 25 41 -7 71 12 71 45 0 27 10 32 55 29 31 -2 41 -8 43 -23z
m-5569 -91 c23 -39 25 -44 13 -44 -4 0 -14 15 -22 33 -7 17 -15 35 -18 40 -2
4 -1 7 1 7 3 0 14 -16 26 -36z m46 -75 c10 -30 0 -33 -13 -4 -6 14 -7 25 -2
25 5 0 12 -9 15 -21z m7913 -148 c-7 -12 -16 -21 -21 -21 -4 0 0 11 9 25 20
30 31 26 12 -4z m-40 -56 c-10 -23 -28 -34 -28 -18 0 7 31 43 36 43 2 0 -2
-11 -8 -25z m-38 -50 c-7 -9 -15 -13 -17 -11 -7 7 7 26 19 26 6 0 6 -6 -2 -15z
m-2279 -19 c106 -25 177 -77 146 -107 -7 -8 -22 -27 -32 -43 -11 -16 -33 -35
-50 -42 -18 -8 -23 -13 -12 -14 9 0 17 -5 17 -12 0 -6 9 -3 20 7 13 11 20 14
20 6 0 -29 -24 -51 -75 -70 -67 -25 -150 -27 -206 -4 l-42 16 22 18 c13 10 20
23 16 29 -10 17 -25 11 -18 -7 5 -13 2 -15 -15 -11 -15 4 -19 2 -15 -8 7 -19
-17 -18 -46 2 -19 14 -22 22 -16 50 6 34 -8 67 -31 71 -12 2 -12 1 -20 -69 -5
-43 -3 -50 23 -74 48 -45 100 -65 196 -76 51 -5 106 -10 122 -9 39 2 86 21 79
32 -3 5 2 6 10 3 18 -7 81 30 90 52 3 8 2 13 -3 10 -5 -3 -6 14 -4 38 4 29 0
51 -10 67 -11 17 -13 29 -6 39 8 12 14 10 39 -18 24 -26 30 -41 30 -78 0 -40
-5 -51 -34 -79 -43 -40 -100 -67 -193 -91 -60 -15 -73 -22 -74 -39 0 -11 -2
-32 -3 -47 -1 -16 2 -28 7 -28 4 0 5 -4 2 -10 -9 -15 -45 -12 -51 4 -3 8 -1
23 4 32 7 13 6 22 -5 32 -10 10 -11 18 -4 25 8 8 -14 18 -72 34 -144 42 -207
92 -207 166 0 37 6 46 73 111 102 101 190 125 328 92z m2249 -15 c0 -4 -12
-21 -27 -37 -15 -16 -28 -33 -28 -38 0 -5 -6 -11 -14 -14 -19 -6 -12 8 29 56
36 44 40 47 40 33z m-89 -114 c-6 -8 -7 -17 -3 -21 4 -4 2 -6 -3 -4 -12 3 -75
-57 -75 -72 0 -6 -5 -10 -11 -10 -6 0 -9 4 -7 9 6 16 93 111 102 111 5 0 3 -6
-3 -13z m-5024 -303 c-3 -3 -12 -4 -19 -1 -8 3 -5 6 6 6 11 1 17 -2 13 -5z m3
-49 c10 -12 9 -16 -4 -21 -24 -9 -47 3 -40 21 8 19 28 19 44 0z m-185 -185 c6
-1 -8 -6 -30 -9 -32 -5 -41 -11 -43 -28 -3 -20 1 -23 32 -23 20 0 36 -4 36
-10 0 -5 -16 -10 -35 -10 -31 0 -35 -3 -35 -25 0 -22 4 -25 34 -25 19 0 38 -4
41 -10 4 -6 -13 -10 -44 -10 l-51 0 0 73 c0 41 2 76 4 78 5 4 75 4 91 -1z m68
-54 c11 -32 23 -54 27 -49 4 4 13 29 20 56 12 45 30 72 30 46 0 -30 -45 -149
-56 -149 -10 0 -21 27 -60 148 -2 8 1 12 8 10 6 -2 20 -30 31 -62z m191 -13
c25 -80 25 -105 -1 -65 -9 12 -26 22 -38 22 -12 0 -29 -10 -38 -22 -27 -41
-28 -12 -1 58 41 110 44 110 78 7z m147 67 c23 -13 25 -53 3 -74 -8 -9 -29
-16 -45 -16 -26 0 -29 -3 -29 -30 0 -16 -4 -30 -10 -30 -6 0 -10 33 -10 80 l0
80 36 0 c19 0 44 -5 55 -10z m989 0 c0 -5 -16 -10 -36 -10 -33 0 -35 -2 -32
-27 2 -23 9 -29 38 -34 36 -7 33 -10 -10 -12 -21 -2 -26 -8 -28 -34 -2 -18 -7
-33 -13 -33 -10 0 -13 143 -2 153 10 11 83 8 83 -3z m60 -60 l0 -70 35 0 c19
0 35 -4 35 -10 0 -5 -20 -10 -45 -10 l-45 0 0 80 c0 47 4 80 10 80 6 0 10 -30
10 -70z m188 54 c18 -12 22 -25 22 -64 0 -56 -18 -80 -60 -80 -51 0 -76 64
-49 124 11 23 24 31 54 35 6 0 21 -6 33 -15z m76 -36 c10 -67 23 -78 31 -27
15 87 38 100 49 27 11 -70 21 -74 35 -13 7 30 17 55 23 55 6 0 8 -10 4 -22 -3
-13 -11 -47 -17 -75 -18 -80 -38 -72 -55 21 -8 45 -18 34 -29 -31 -8 -49 -31
-58 -41 -15 -3 15 -10 43 -15 62 -11 45 -11 73 0 66 5 -3 12 -25 15 -48z
m1050 46 c28 -11 17 -21 -21 -20 -33 1 -38 -2 -46 -32 -7 -22 -6 -40 2 -58 10
-23 16 -25 46 -20 35 7 49 -6 19 -18 -52 -20 -94 13 -94 74 0 61 42 94 94 74z
m148 -11 c23 -21 25 -104 2 -127 -20 -21 -63 -20 -86 1 -23 20 -24 90 -2 121
18 26 60 29 86 5z m110 -40 l33 -58 3 58 c5 87 22 68 22 -24 0 -95 -9 -98 -57
-19 l-32 53 -3 -54 c-3 -58 -22 -70 -25 -16 -3 47 7 117 17 117 5 0 23 -26 42
-57z m186 41 c17 -12 22 -25 22 -61 0 -60 -20 -83 -72 -83 l-38 0 0 80 0 80
33 0 c18 0 43 -7 55 -16z"/>
<path d="M7640 5170 c0 -5 4 -10 9 -10 5 0 7 -9 4 -20 -3 -11 0 -20 6 -20 6 0
11 -8 11 -17 1 -16 2 -16 15 1 20 27 19 29 -15 54 -16 13 -30 18 -30 12z"/>
<path d="M5707 5049 c7 -7 15 -10 18 -7 3 3 -2 9 -12 12 -14 6 -15 5 -6 -5z"/>
<path d="M7380 5027 c0 -8 -19 -28 -78 -80 -20 -18 -20 -18 -15 4 6 20 2 19
-30 -11 -21 -18 -37 -40 -37 -48 0 -12 7 -9 26 9 l27 24 -24 -37 c-13 -21 -28
-38 -34 -38 -5 0 -23 -11 -38 -24 -17 -15 -37 -23 -50 -20 -11 2 -62 -13 -111
-33 -177 -70 -283 -93 -432 -94 -149 0 -311 39 -448 108 -55 28 -101 40 -91
23 13 -21 -12 -9 -34 16 -18 20 -25 23 -36 14 -8 -7 -12 -16 -10 -21 3 -4 -1
-11 -8 -16 -19 -11 -72 -162 -61 -173 5 -5 43 -27 85 -49 l76 -41 66 70 66 70
133 -38 133 -38 12 -79 c7 -43 16 -82 20 -86 4 -4 51 -11 105 -15 l96 -7 11
54 c5 30 13 71 17 92 7 44 3 42 159 85 l110 31 66 -71 65 -72 65 36 c113 64
106 50 75 162 -29 99 -29 126 -1 126 10 0 13 5 9 12 -5 7 -3 8 5 4 17 -11 51
22 51 49 0 12 11 31 25 43 14 12 25 17 25 10 0 -6 11 -1 24 11 20 19 32 22 63
17 l38 -6 -29 16 c-32 18 -86 25 -86 11z"/>
<path d="M7512 5001 c-10 -6 -7 -10 13 -15 15 -4 30 -5 33 -1 3 3 -2 5 -10 5
-9 0 -18 4 -20 10 -2 5 -9 6 -16 1z"/>
<path d="M5901 4913 c-1 -6 3 -14 9 -18 5 -3 7 -12 3 -20 -3 -8 -1 -15 3 -16
5 0 21 -2 36 -4 15 -2 30 1 33 6 4 5 2 9 -4 9 -5 0 -13 9 -16 21 -5 16 -13 20
-31 16 -13 -2 -25 1 -28 7 -3 7 -5 7 -5 -1z"/>
<path d="M5190 5675 c0 -146 -3 -186 -12 -182 -7 2 -64 41 -126 86 l-114 81
-85 0 c-74 0 -84 -2 -73 -15 6 -8 9 -23 6 -33 -6 -19 19 -51 30 -39 3 3 17 2
30 -3 13 -5 24 -6 24 -1 0 4 7 8 16 8 10 0 14 -7 11 -19 -3 -10 -1 -21 4 -24
5 -3 9 2 9 11 0 11 7 15 23 13 23 -3 24 1 12 41 -5 15 -3 21 3 17 6 -3 31 -55
58 -115 40 -93 50 -109 68 -107 12 1 27 6 34 10 7 4 12 2 12 -4 0 -13 49 38
52 54 1 6 5 -79 8 -189 l5 -200 30 43 c17 24 51 73 78 110 26 37 45 73 42 80
-3 7 0 10 6 7 6 -4 16 0 22 8 7 8 67 88 135 178 90 119 119 164 110 170 -7 5
-41 9 -75 9 -35 0 -63 4 -63 10 0 10 6 12 42 14 29 2 20 21 -9 22 -16 1 -37 3
-48 5 -11 2 -21 0 -22 -4 -7 -18 -2 -27 15 -28 12 0 11 -3 -7 -10 -18 -7 -27
-5 -40 9 -13 15 -135 116 -193 161 -17 13 -18 3 -18 -174z m130 -25 c0 -4 -8
-7 -17 -5 -10 2 -20 4 -23 4 -3 1 2 5 10 10 15 10 30 6 30 -9z m37 14 c-3 -3
-12 -4 -19 -1 -8 3 -5 6 6 6 11 1 17 -2 13 -5z m33 -19 c-20 -24 -100 -69
-108 -60 -4 3 1 11 11 16 9 6 14 15 11 21 -5 7 -2 8 6 3 7 -4 15 -3 19 2 8 13
65 43 70 37 2 -2 -2 -11 -9 -19z"/>
<path d="M4980 5466 c0 -8 4 -17 9 -20 5 -4 7 3 4 14 -6 23 -13 26 -13 6z"/>
<path d="M3637 6006 c-77 -32 -116 -63 -160 -128 -62 -90 -82 -222 -48 -310
l10 -27 29 27 c16 15 32 34 34 42 3 9 14 -3 31 -35 29 -57 76 -108 121 -133
44 -24 179 -23 223 1 84 45 133 123 141 225 4 59 7 63 26 60 12 -3 28 2 35 9
7 7 16 11 22 8 15 -10 11 20 -11 78 -14 38 -37 70 -75 106 -74 70 -129 93
-235 98 -73 3 -93 0 -143 -21z m192 -231 c38 -19 65 -77 57 -121 -9 -47 -50
-92 -91 -100 -81 -15 -145 40 -145 125 0 36 6 49 34 77 28 28 42 34 75 34 23
0 55 -7 70 -15z"/>
<path d="M4030 5375 c-147 -125 -343 -138 -489 -31 -42 31 -54 35 -71 26 -11
-6 -20 -7 -20 -3 0 5 -12 10 -26 11 -18 1 -25 -2 -21 -11 3 -8 -3 -13 -14 -13
-13 0 -18 5 -14 16 3 8 -10 -3 -29 -25 -20 -22 -36 -43 -36 -47 0 -11 78 -88
89 -88 4 0 29 16 54 35 25 19 54 35 64 35 10 0 48 -12 85 -26 56 -21 69 -31
74 -52 3 -15 12 -49 18 -77 l12 -50 61 -3 60 -3 19 77 c17 69 23 80 53 96 41
23 62 43 54 52 -4 3 3 6 14 6 11 0 23 -3 27 -7 3 -4 12 -8 20 -9 7 -1 35 -18
63 -38 28 -20 56 -36 62 -36 7 0 30 19 51 41 l40 42 -18 30 c-30 52 -71 90
-91 84 -14 -3 -18 -1 -14 9 10 26 -11 14 -77 -41z m-95 -94 c-3 -6 -11 -11
-16 -11 -5 0 -4 6 3 14 14 16 24 13 13 -3z"/>
<path d="M6507 6029 c-97 -23 -196 -99 -236 -182 -21 -43 -45 -146 -36 -155 2
-3 7 13 11 35 5 36 43 102 44 76 0 -17 31 -9 46 12 9 12 14 14 14 5 0 -9 6 -8
20 5 26 23 25 19 -6 -50 -87 -190 92 -400 293 -344 68 19 146 98 167 169 9 30
16 61 16 70 0 17 -23 105 -35 133 -4 10 -4 17 1 16 22 -4 35 2 28 13 -5 8 -2
9 9 5 21 -8 47 1 47 16 0 24 -55 88 -103 121 -82 56 -188 77 -280 55z m163
-105 c0 -2 -9 -4 -20 -4 -11 0 -20 4 -20 9 0 5 9 7 20 4 11 -3 20 -7 20 -9z
m-36 -138 c123 -51 87 -240 -46 -238 -134 2 -168 173 -47 234 41 22 50 22 93
4z"/>
<path d="M6558 5243 c7 -3 16 -2 19 1 4 3 -2 6 -13 5 -11 0 -14 -3 -6 -6z"/>
<path d="M6330 5205 c-11 -13 -10 -14 4 -9 9 3 16 10 16 15 0 13 -6 11 -20 -6z"/>
<path d="M6039 4997 c14 -15 29 -27 33 -27 10 0 -5 16 -37 40 -15 10 -14 7 4
-13z"/>
<path d="M4993 3209 c-31 -11 -43 -40 -43 -99 0 -41 5 -56 25 -75 13 -14 29
-25 35 -25 6 0 22 11 35 25 21 20 25 34 25 83 0 44 -5 63 -17 74 -28 24 -37
26 -60 17z"/>
<path d="M6296 3191 c-39 -43 -27 -152 20 -173 30 -14 71 11 80 48 9 34 -1
111 -16 129 -17 21 -63 19 -84 -4z"/>
<path d="M3640 3165 l0 -45 39 0 c38 0 71 19 71 41 0 33 -22 49 -65 49 l-45 0
0 -45z"/>
<path d="M6620 3170 l0 -40 45 0 c34 0 47 5 55 19 13 25 13 27 -6 45 -9 9 -32
16 -55 16 -39 0 -39 0 -39 -40z"/>
<path d="M3777 2563 c-2 -4 -8 -25 -11 -47 -7 -35 -9 -38 -34 -31 -97 24 -108
12 -41 -45 l41 -36 -41 -27 c-62 -41 -49 -66 21 -41 41 14 51 8 62 -38 3 -16
13 -28 21 -28 8 0 18 12 21 28 11 46 21 52 59 36 73 -30 88 -5 28 45 l-38 31
38 31 c20 17 37 37 37 45 0 19 -40 18 -68 -2 -13 -9 -24 -14 -25 -13 -2 2 -9
24 -17 49 -14 41 -41 63 -53 43z m57 -118 c24 -18 15 -57 -19 -75 -22 -12 -27
-11 -45 5 -52 47 8 112 64 70z"/>
<path d="M3556 1999 c-44 -63 -2 -130 104 -168 90 -32 324 -31 304 1 -5 7 -2
9 9 5 9 -3 16 -3 14 1 -1 5 15 23 36 41 40 36 47 68 25 116 -15 34 -33 26 -34
-16 -1 -73 -10 -86 -72 -110 -112 -44 -296 -25 -337 34 -8 12 -15 37 -15 57 0
52 -14 68 -34 39z"/>
<path d="M5173 2478 c-51 -89 -59 -119 -43 -159 13 -30 54 -59 85 -59 47 0 95
51 95 101 0 20 -31 84 -72 152 l-24 38 -41 -73z m77 -64 c17 -36 30 -74 30
-83 0 -25 -35 -53 -65 -53 -55 0 -77 52 -46 110 12 20 25 49 31 65 5 15 12 27
15 27 3 0 19 -30 35 -66z"/>
<path d="M4970 2001 c-18 -35 -12 -96 13 -119 34 -32 107 -61 183 -72 113 -16
164 -12 219 15 28 14 41 23 30 20 -12 -4 -2 9 24 31 40 35 43 40 38 77 -3 22
-12 47 -21 55 -14 14 -18 13 -41 -12 -14 -15 -46 -36 -71 -47 -38 -17 -45 -24
-40 -41 11 -45 -9 -58 -87 -58 -40 0 -90 5 -112 11 l-39 11 24 14 c14 7 21 13
16 14 -5 0 -3 6 3 14 10 11 7 17 -11 30 -12 9 -28 16 -34 16 -7 0 -26 14 -44
30 -38 36 -37 35 -50 11z"/>
<path d="M5450 1870 c-9 -6 -10 -10 -3 -10 6 0 15 5 18 10 8 12 4 12 -15 0z"/>
<path d="M6531 2504 c-17 -14 -36 -43 -42 -64 -16 -52 11 -107 63 -133 49 -24
87 -16 133 28 28 25 35 40 35 69 0 105 -112 165 -189 100z m107 -50 c44 -30
16 -104 -40 -104 -22 0 -58 38 -58 62 0 23 35 58 58 58 10 0 28 -7 40 -16z"/>
<path d="M6430 1955 c0 -10 29 -24 34 -17 3 6 -3 12 -14 15 -11 3 -20 4 -20 2z"/>
<path d="M3846 1438 c-14 -40 -15 -48 -6 -53 6 -3 16 -2 24 2 12 7 12 13 1 38
-10 25 -14 27 -19 13z"/>
<path d="M3970 1440 c0 -25 4 -30 25 -30 29 0 50 31 33 48 -7 7 -22 12 -35 12
-19 0 -23 -5 -23 -30z"/>
<path d="M5216 1448 c-38 -54 8 -130 52 -86 17 17 15 74 -4 92 -21 21 -30 20
-48 -6z"/>
<path d="M6482 1458 c-27 -27 -7 -108 26 -108 28 0 42 21 42 60 0 39 -14 60
-40 60 -9 0 -21 -5 -28 -12z"/>
<path d="M6780 1410 c0 -56 2 -60 23 -60 33 0 47 18 47 60 0 42 -14 60 -47 60
-21 0 -23 -4 -23 -60z"/>
<path d="M846 7875 c-3 -8 -1 -15 3 -15 5 0 11 7 15 15 3 8 1 15 -3 15 -5 0
-11 -7 -15 -15z"/>
<path d="M791 7790 c-18 -30 -46 -77 -63 -105 -100 -163 -258 -484 -341 -690
-147 -368 -266 -851 -321 -1300 -71 -578 -25 -1208 134 -1857 291 -1189 1055
-2264 2105 -2962 598 -399 1221 -648 1945 -780 481 -87 1066 -101 1543 -35
427 58 884 180 1262 335 165 69 483 226 644 319 222 128 459 293 681 474 135
110 540 514 657 656 685 831 1050 1728 1159 2850 20 208 23 665 6 850 -55 576
-182 1091 -387 1571 -67 156 -83 184 -100 178 -8 -4 -15 -1 -15 7 0 7 -3 10
-6 7 -3 -3 4 -26 15 -51 121 -265 254 -659 305 -905 30 -139 30 -146 14 -136
-7 4 -8 3 -4 -4 6 -10 14 -63 19 -127 1 -11 7 -23 12 -27 7 -5 6 -14 -2 -28
-16 -24 -16 -30 -2 -30 5 0 7 5 4 10 -3 6 -2 10 3 10 14 0 36 -29 28 -37 -3
-3 -6 -1 -6 5 0 7 -5 12 -10 12 -6 0 -10 -6 -9 -12 2 -20 -12 -58 -22 -58 -13
0 -11 11 7 31 10 11 12 19 5 24 -6 3 -11 0 -11 -7 -1 -7 -7 -2 -15 12 -9 16
-10 29 -4 37 7 7 6 13 -1 18 -5 3 -10 17 -10 31 0 13 -3 24 -7 24 -5 0 -9 17
-10 38 -1 41 -9 79 -22 113 -6 17 -8 11 -7 -27 1 -27 4 -54 8 -60 8 -12 4 -61
-5 -71 -14 -13 -6 -21 16 -15 l22 5 -20 -23 c-14 -16 -16 -24 -7 -27 6 -3 12
-11 12 -19 0 -9 -4 -13 -9 -10 -5 4 -7 -3 -4 -15 3 -11 11 -18 19 -15 10 4 11
-1 4 -19 -6 -16 -6 -27 1 -31 6 -3 8 -15 6 -26 -3 -10 -2 -32 3 -48 5 -18 5
-32 -1 -36 -5 -3 -7 -17 -4 -32 2 -14 0 -29 -6 -33 -8 -4 -7 -50 1 -155 96
-1228 -243 -2448 -938 -3376 -201 -268 -575 -664 -812 -860 -287 -238 -619
-454 -949 -619 -1162 -579 -2525 -667 -3765 -242 -453 155 -872 374 -1274 665
-463 337 -919 814 -1224 1283 -419 644 -667 1333 -762 2115 -51 416 -48 851 7
1280 9 63 15 138 15 165 l1 50 -11 -37 c-6 -24 -14 -35 -23 -32 -10 4 -11 12
-5 29 5 13 7 25 4 27 -2 3 5 40 16 84 23 91 23 94 11 94 -5 0 -8 -6 -8 -12 2
-17 -32 -126 -48 -158 -15 -29 -30 -91 -26 -105 1 -5 -1 -6 -5 -2 -5 4 -7 27
-5 50 2 23 4 54 5 70 1 15 -1 27 -6 27 -4 0 -8 -8 -9 -17 0 -13 -2 -14 -6 -4
-3 8 3 20 13 28 15 11 16 16 6 22 -11 6 -11 17 -3 47 9 36 37 166 48 224 8 48
85 308 125 425 79 232 235 581 351 787 19 33 23 48 14 51 -8 4 -9 8 -1 14 5 4
16 23 23 41 14 33 35 46 24 15 -4 -14 -2 -13 10 3 9 11 14 33 13 47 -2 17 3
31 12 36 8 4 12 14 10 22 -3 8 -18 -8 -37 -41z m8943 -526 c10 -25 -1 -29 -14
-5 -6 12 -7 21 -1 21 5 0 12 -7 15 -16z m-9464 -1311 c0 -10 -5 -25 -10 -33
-7 -11 -10 -7 -10 18 0 17 5 32 10 32 6 0 10 -8 10 -17z m9817 -5 c-3 -8 -6
-5 -6 6 -1 11 2 17 5 13 3 -3 4 -12 1 -19z m-15 -23 c4 -20 3 -23 -8 -14 -10
8 -14 8 -14 0 0 -6 -5 -11 -10 -11 -8 0 18 48 26 50 1 0 4 -11 6 -25z m-9812
-40 c0 -8 -4 -15 -8 -15 -5 0 -9 7 -9 15 0 8 4 15 9 15 4 0 8 -7 8 -15z m9810
-25 c0 -5 -7 -7 -15 -4 -8 4 -15 8 -15 10 0 2 7 4 15 4 8 0 15 -4 15 -10z"/>
<path d="M9536 7623 c-6 -14 -5 -15 5 -6 7 7 10 15 7 18 -3 3 -9 -2 -12 -12z"/>
<path d="M9594 7498 c3 -7 9 -21 12 -30 4 -10 14 -18 24 -18 10 0 21 -6 23
-12 3 -7 6 -8 6 -2 1 6 -12 25 -27 42 -29 32 -49 42 -38 20z"/>
<path d="M9675 7390 c4 -7 8 -27 8 -44 -1 -24 1 -27 6 -12 7 19 8 18 14 -4 3
-13 9 -22 12 -19 7 8 -22 76 -36 85 -8 5 -9 3 -4 -6z"/>
<path d="M9970 5869 c0 -11 4 -18 10 -14 5 3 7 12 3 20 -7 21 -13 19 -13 -6z"/>
<path d="M9981 5796 c1 -21 3 -25 6 -11 3 11 9 25 14 31 5 7 3 11 -6 11 -10 0
-15 -10 -14 -31z"/>
<path d="M1130 2361 c0 -6 4 -13 10 -16 6 -3 7 1 4 9 -7 18 -14 21 -14 7z"/>
<path d="M1280 2163 c0 -13 29 -38 35 -31 3 3 -4 13 -15 23 -11 10 -20 13 -20
8z"/>
<path d="M1320 2114 c0 -14 22 -44 33 -44 8 0 8 3 -2 9 -7 5 -11 13 -7 19 3 5
-1 12 -9 16 -8 3 -15 3 -15 0z"/>
<path d="M1390 2040 c0 -5 5 -10 11 -10 5 0 7 5 4 10 -3 6 -8 10 -11 10 -2 0
-4 -4 -4 -10z"/>
<path d="M8710 1860 c-9 -6 -10 -10 -3 -10 6 0 15 5 18 10 8 12 4 12 -15 0z"/>
</g>
</svg>
